<?xml version="1.0" encoding="UTF-8"?>
<svg id="Layer_1" xmlns="http://www.w3.org/2000/svg" version="1.1" viewBox="0 0 512 512">
  <!-- Generator: Adobe Illustrator 30.6.0, SVG Export Plug-In . SVG Version: 2.1.4 Build 109)  -->
  <defs>
    <style>
      .st0 {
        fill: #fff;
      }

      .st1 {
        fill: #e65538;
      }
    </style>
  </defs>
  <rect id="bg" class="st1" width="512" height="512"/>
  <path id="f" class="st0" d="M323.7,61.9c-6.5-5.1-16.1-7.7-28.7-7.7s-26.9,2.3-37.3,7-19.5,12.5-27,23.5c-7.5,11.1-14.1,26-19.8,45.1-5.7,19.1-10.8,43.1-15.6,72.1l-21.2,146.5c-4.1,28.4-7.7,49.9-10.7,64.3-2.8,14.4-5.7,24-8.2,28.7-2.6,4.8-5.5,7.3-9.1,7.3s-6.5-1.6-8-4.6-2.6-6.5-3.4-10.4c-.9-3.8-2.4-7.3-4.8-10.4-2.4-3-6.5-4.6-12.2-4.6s-9.5,1.4-12.9,4.3c-3.6,2.8-5.5,6.7-6.3,11.5-1,6.1,1.4,11.4,7.3,16.1s14.9,7,27.4,7,24.7-3.7,34-11.2c9.1-7.5,16.8-20.2,22.9-38.1,6.1-17.8,11.4-41.8,15.8-72.1l21.2-144.4c6.4-42.8,13.8-75.1,22.2-96.9,8.4-21.8,18.5-32.6,30.3-32.6s8.5,1.7,10.4,5c1.7,3.4,3.3,7.3,4.6,11.8s3.1,8.4,5.5,11.8,6.8,5,13.2,5,8.5-1.4,12.1-4.1,5.8-6.7,6.7-11.8c1-7-1.8-13.1-8.4-18.2h.1-.1Z"/>
  <path id="e" class="st0" d="M304.5,367.5c-17.6-1.8-30.9-7.8-39.8-17.8-9-10-14.2-22.2-15.6-36.8-1.6-14.6,0-29.9,4.7-45.8,3.6-11.8,9.2-23.5,17.4-34.8,8-11.4,17.5-21.5,28.4-30.3s23-15.5,36.1-20.3c13.1-4.7,26.7-6.4,40.7-4.8,12.1,1.3,20.9,4.6,26.3,9.8,5.4,5.3,7.3,11.8,5.4,19.6-2.1,7.5-7.3,14.5-15.5,21s-18.9,13.6-31,18.9-26.2,9.6-41.4,12.2c-82.8,14-166.7-4.4-221.1-64.8s-.2-.5,0-1c.8-1.6,2.5-3.1,4.3-3.5s.7-.2.9,0c66,68.9,193.5,64,232.8,50.4s28.7-14.1,32.7-27.5c2.7-7.7,2.1-13.7-1.7-17.8-4-4.1-9.1-6.5-15.5-7.3-9.5-1-18.3,1.4-26.5,7.3-8.1,5.8-15.1,14.2-21,24.7-6,10.7-10.8,22.5-14.5,35.6-5,16.8-7,32.3-6,46.4,1.1,14.1,5.1,25.7,12.2,34.8s17.4,14.4,30.7,15.8c7.4.7,15.2.4,23.6-.9,8.4-1.4,16.8-4.7,25-9.8.7-.6,1.6-.1,2.6,1.3s1.1,2.5.5,3.3-.1.1-.2.2c-13.2,9.2-26.1,15.3-38.4,18.5-12.5,3.1-24.5,4.1-36,3h-.1v.3Z"/>
</svg>